<?xml version="1.0" standalone="no"?>
<!DOCTYPE svg PUBLIC "-//W3C//DTD SVG 20010904//EN"
 "http://www.w3.org/TR/2001/REC-SVG-20010904/DTD/svg10.dtd">
<svg version="1.0" xmlns="http://www.w3.org/2000/svg"
 width="256.000000pt" height="256.000000pt" viewBox="0 0 256.000000 256.000000"
 preserveAspectRatio="xMidYMid meet">
<metadata>
Created by potrace 1.11, written by Peter Selinger 2001-2013
</metadata>
<g transform="translate(0.000000,256.000000) scale(0.100000,-0.100000)"
fill="#000000" stroke="none">
<path d="M1714 2316 c-3 -7 -4 -35 -2 -62 2 -38 7 -50 22 -52 10 -2 22 2 27
10 13 20 11 92 -3 106 -16 16 -37 15 -44 -2z"/>
<path d="M1517 2243 c-15 -14 -5 -41 27 -72 25 -25 39 -31 55 -26 30 9 26 36
-12 73 -32 31 -56 40 -70 25z"/>
<path d="M1881 2205 c-36 -42 -39 -60 -11 -75 18 -10 26 -6 56 24 24 24 34 43
32 58 -5 37 -40 34 -77 -7z"/>
<path d="M765 2135 c-14 -13 -25 -34 -25 -46 0 -11 -11 -30 -25 -41 l-25 -19
0 -250 c0 -144 -4 -249 -9 -249 -5 0 -18 17 -28 38 -25 51 -61 52 -86 1 -10
-22 -30 -42 -47 -49 -41 -17 -51 -57 -20 -82 12 -10 28 -18 36 -18 7 0 16 -11
20 -24 8 -32 38 -59 61 -54 10 1 25 17 33 35 8 18 21 35 28 37 9 4 12 -50 12
-249 l0 -255 -34 0 c-31 0 -34 3 -44 43 -17 65 -51 92 -119 92 -49 0 -58 -3
-83 -32 -41 -45 -47 -92 -21 -146 20 -41 21 -58 19 -208 l-3 -164 -50 -5 c-53
-5 -69 -26 -45 -55 19 -22 1971 -22 1990 0 25 30 8 50 -48 53 l-52 3 0 45 c0
30 -5 46 -15 50 -20 8 -20 68 0 84 11 9 15 33 15 89 1 47 6 86 15 101 19 34
19 105 -1 136 -22 33 -64 54 -110 54 -30 0 -44 -7 -76 -40 -26 -29 -38 -50
-38 -70 0 -28 -3 -30 -35 -30 l-35 0 0 235 c0 224 -1 235 -20 247 -13 8 -20
24 -20 43 0 19 7 35 20 43 17 10 20 23 20 86 0 111 13 106 -288 106 l-252 0 0
50 c0 41 -5 55 -25 74 -14 13 -25 33 -25 46 0 12 11 31 25 42 21 16 25 28 25
68 0 62 -13 96 -39 105 -14 4 -21 15 -21 33 -1 67 -21 72 -295 72 l-236 0 -24
-25z"/>
<path d="M1684 2105 c-8 -20 -22 -39 -32 -42 -28 -10 -52 -35 -52 -54 0 -11
17 -30 40 -44 22 -14 40 -31 40 -39 0 -20 36 -48 57 -44 10 2 26 18 35 37 10
19 30 40 47 47 52 22 50 74 -5 95 -13 4 -30 24 -39 43 -14 29 -23 36 -47 36
-24 0 -32 -6 -44 -35z"/>
<path d="M1435 2044 c-9 -9 -14 -23 -11 -31 3 -8 6 -17 6 -19 0 -2 24 -4 54
-4 46 0 56 3 61 20 4 12 1 27 -5 35 -17 20 -85 19 -105 -1z"/>
<path d="M1920 2025 c-25 -30 -8 -50 47 -53 43 -3 54 0 62 17 8 15 7 23 -5 35
-20 20 -88 21 -104 1z"/>
<path d="M1527 1864 c-43 -43 -43 -45 -18 -68 18 -16 21 -16 55 15 28 24 36
38 34 58 -4 38 -29 36 -71 -5z"/>
<path d="M1847 1873 c-16 -15 -5 -43 29 -72 38 -34 51 -35 68 -9 22 36 -68
111 -97 81z"/>
<path d="M1689 1803 c-7 -18 -8 -41 -2 -63 6 -28 13 -35 33 -35 23 0 25 4 28
48 5 73 -37 107 -59 50z"/>
<path d="M596 1778 c-36 -52 -2 -142 40 -107 17 14 19 100 2 117 -17 17 -25
15 -42 -10z"/>
<path d="M397 1713 c-16 -16 -5 -51 26 -81 37 -36 52 -40 65 -14 13 23 0 55
-34 81 -27 22 -46 26 -57 14z"/>
<path d="M313 1513 c-23 -9 -15 -52 11 -59 67 -17 134 20 92 52 -19 13 -78 18
-103 7z"/>
<path d="M405 1323 c-38 -40 -42 -52 -23 -71 17 -17 23 -15 63 19 36 32 44 56
23 77 -18 18 -25 15 -63 -25z"/>
<path d="M570 1255 c-13 -34 -13 -48 2 -80 8 -18 18 -25 32 -23 19 3 21 10 21
63 0 55 -2 60 -22 63 -17 3 -26 -3 -33 -23z"/>
</g>
</svg>
